<!DOCTYPE svg PUBLIC "-//W3C//DTD SVG 20010904//EN" "http://www.w3.org/TR/2001/REC-SVG-20010904/DTD/svg10.dtd">
<svg version="1.0" xmlns="http://www.w3.org/2000/svg" width="235px" height="235px" viewBox="0 0 2350 2350" preserveAspectRatio="xMidYMid meet">
<g id="layer101" fill="#000000" stroke="none">
 <path d="M206 2170 c-34 -10 -91 -63 -112 -102 -18 -35 -18 -112 1 -151 8 -18 271 -288 585 -602 516 -516 570 -573 570 -602 0 -39 -30 -63 -80 -63 -31 0 -46 11 -136 101 -79 78 -109 102 -139 109 -158 36 -283 -136 -196 -271 15 -24 104 -119 197 -210 143 -141 175 -167 208 -173 70 -13 108 1 237 90 68 46 126 84 130 84 4 0 15 -24 25 -52 27 -84 91 -175 143 -206 41 -24 56 -27 131 -26 119 1 163 16 226 76 64 60 89 122 88 218 0 79 -28 141 -94 210 -48 51 -119 80 -195 80 l-38 0 5 95 c3 53 8 98 11 102 4 3 71 8 149 10 79 3 157 9 175 14 41 13 99 77 114 128 24 79 -24 175 -106 212 -35 16 -69 19 -295 19 -140 0 -271 -5 -290 -10 -42 -12 -107 -75 -112 -109 -5 -37 -20 -35 -49 7 -48 69 -52 61 103 219 79 79 146 149 149 156 14 26 18 84 9 121 -7 34 -45 76 -247 278 -231 232 -239 238 -292 250 -53 12 -56 11 -110 -18 -68 -37 -100 -92 -101 -170 0 -64 18 -90 169 -239 101 -100 111 -113 111 -146 0 -30 -7 -43 -40 -73 -72 -64 -56 -75 -427 297 -371 373 -376 377 -477 347z m1095 -297 c115 -113 213 -219 220 -234 24 -60 9 -84 -161 -254 -88 -88 -160 -167 -160 -175 1 -21 222 -250 242 -250 29 0 48 41 48 99 0 42 5 60 22 78 21 23 22 23 290 23 l269 0 24 -25 c17 -16 25 -35 25 -60 0 -25 -8 -44 -25 -60 -24 -25 -26 -25 -208 -25 -142 0 -188 -3 -203 -14 -17 -13 -20 -31 -24 -183 -7 -205 -6 -206 84 -197 108 11 183 -22 227 -99 19 -33 24 -57 24 -113 0 -60 -4 -76 -28 -112 -48 -73 -142 -107 -239 -87 -49 10 -68 19 -94 48 -37 40 -73 144 -77 219 -1 25 -4 44 -6 42 -2 -2 -11 6 -20 16 -16 19 -21 17 -180 -90 -227 -153 -201 -156 -409 52 -156 156 -162 164 -162 203 0 57 22 85 67 85 46 0 76 -22 201 -147 56 -57 109 -103 118 -103 15 0 156 102 229 164 l30 26 -370 370 c-466 465 -836 844 -852 873 -39 70 10 141 85 122 16 -4 163 -143 388 -366 199 -197 366 -359 371 -359 14 0 253 245 253 260 0 8 -74 88 -165 180 l-165 166 0 51 c0 62 22 83 84 83 39 0 47 -7 247 -207z"/>
 </g>

</svg>